<?xml version="1.0" encoding="utf-8" standalone="no"?>
<!DOCTYPE svg PUBLIC "-//W3C//DTD SVG 1.1//EN"
  "http://www.w3.org/Graphics/SVG/1.1/DTD/svg11.dtd">
<svg height="363.8545pt" version="1.1" viewBox="0 0 596.194152 363.8545" width="596.194152pt" xmlns="http://www.w3.org/2000/svg" xmlns:xlink="http://www.w3.org/1999/xlink">
 <metadata>
  <rdf:RDF xmlns:cc="http://creativecommons.org/ns#" xmlns:dc="http://purl.org/dc/elements/1.1/" xmlns:rdf="http://www.w3.org/1999/02/22-rdf-syntax-ns#">
   <cc:Work>
    <dc:type rdf:resource="http://purl.org/dc/dcmitype/StillImage"/>
    <dc:date>2021-12-07T00:30:33.076203</dc:date>
    <dc:format>image/svg+xml</dc:format>
    <dc:creator>
     <cc:Agent>
      <dc:title>Matplotlib v3.4.3, https://matplotlib.org/</dc:title>
     </cc:Agent>
    </dc:creator>
   </cc:Work>
  </rdf:RDF>
 </metadata>
 <defs>
  <style type="text/css">*{stroke-linecap:butt;stroke-linejoin:round;}</style>
 </defs>
 <g id="figure_1">
  <g id="patch_1">
   <path d="M 0 363.8545 
L 596.194152 363.8545 
L 596.194152 -0 
L 0 -0 
z
" style="fill:#ffffff;stroke:#000000;stroke-linejoin:miter;"/>
  </g>
  <g id="axes_1">
   <g id="patch_2">
    <path d="M 7.2 264.24 
L 565.2 264.24 
L 565.2 7.2 
L 7.2 7.2 
z
" style="fill:#ffffff;"/>
   </g>
   <g id="matplotlib.axis_1">
    <g id="xtick_1">
     <g id="line2d_1"/>
    </g>
    <g id="xtick_2">
     <g id="line2d_2"/>
    </g>
    <g id="xtick_3">
     <g id="line2d_3"/>
    </g>
    <g id="xtick_4">
     <g id="line2d_4"/>
    </g>
    <g id="xtick_5">
     <g id="line2d_5"/>
    </g>
    <g id="xtick_6">
     <g id="line2d_6"/>
    </g>
   </g>
   <g id="line2d_7">
    <path clip-path="url(#p0516711e29)" d="M -1 251.044872 
L 1.055856 250.476145 
L 3.183698 249.706356 
L 5.31154 248.716186 
L 7.439382 247.466484 
L 9.567224 245.918856 
L 11.695066 244.038249 
L 13.822909 241.795876 
L 15.950751 239.172235 
L 18.078593 236.159937 
L 20.206435 232.766035 
L 22.334277 229.013528 
L 25.52604 222.802837 
L 28.717804 216.073997 
L 38.293093 195.457549 
L 41.484856 189.347452 
L 43.612698 185.67028 
L 45.740541 182.351311 
L 47.868383 179.407765 
L 49.996225 176.841609 
L 52.124067 174.641377 
L 54.251909 172.784637 
L 56.379751 171.240837 
L 58.507593 169.974205 
L 60.635435 168.946471 
L 62.763278 168.119237 
L 65.955041 167.175007 
L 69.146804 166.490709 
L 73.402488 165.833464 
L 79.786015 165.120602 
L 90.425225 164.181442 
L 101.064436 163.450298 
L 126.598541 161.884472 
L 135.10991 161.063017 
L 142.557357 160.151215 
L 148.940884 159.16666 
L 155.32441 157.96167 
L 173.411068 154.28021 
L 177.666752 153.75631 
L 181.922437 153.499699 
L 186.178121 153.530056 
L 190.433805 153.828479 
L 194.689489 154.342652 
L 201.073016 155.359225 
L 215.967911 157.831359 
L 230.862806 160.190023 
L 237.246332 161.447621 
L 245.757701 163.383507 
L 253.205148 165.043789 
L 258.524753 165.985013 
L 262.780438 166.491636 
L 267.036122 166.737962 
L 271.291806 166.722202 
L 275.54749 166.479801 
L 281.931017 165.842591 
L 293.634148 164.605394 
L 314.91257 162.69324 
L 330.871386 160.708754 
L 335.12707 160.464183 
L 339.382754 160.453372 
L 343.638438 160.705265 
L 347.894123 161.230714 
L 352.149807 162.026797 
L 356.405491 163.081116 
L 360.661175 164.374967 
L 364.91686 165.885029 
L 370.236465 168.034306 
L 376.619991 170.913115 
L 384.067439 174.53572 
L 394.70665 179.966849 
L 402.154097 184.002353 
L 407.473702 187.115198 
L 412.793308 190.4734 
L 419.176834 194.791452 
L 437.263492 207.263323 
L 443.647018 211.31281 
L 450.030545 215.109375 
L 456.414071 218.649227 
L 462.797598 221.931373 
L 469.181124 224.967728 
L 476.628571 228.232502 
L 484.076019 231.236758 
L 491.523466 234.013088 
L 500.034835 236.949407 
L 509.610124 240.009814 
L 519.185414 242.834866 
L 527.696782 245.107698 
L 535.14423 246.859375 
L 541.527756 248.152858 
L 547.911283 249.241484 
L 555.35873 250.261486 
L 562.806178 251.045079 
L 571.317546 251.700213 
L 579.828915 252.135885 
L 589.404204 252.406233 
L 597.194152 252.50386 
L 597.194152 252.50386 
" style="fill:none;stroke:#f6c85f;stroke-linecap:square;stroke-width:3;"/>
   </g>
   <g id="line2d_8">
    <path clip-path="url(#p0516711e29)" d="M -1 252.556364 
L 45.756499 252.452914 
L 62.225997 252.083114 
L 73.205663 251.984948 
L 80.52544 251.889956 
L 84.185328 251.672287 
L 86.930245 251.345732 
L 89.675161 250.802433 
L 91.505105 250.275795 
L 93.335049 249.58041 
L 95.164994 248.679487 
L 96.994938 247.532352 
L 98.824882 246.095387 
L 100.654826 244.323499 
L 102.48477 242.172138 
L 104.314715 239.59981 
L 106.144659 236.570976 
L 107.974603 233.05913 
L 109.804547 229.049801 
L 111.634492 224.543168 
L 113.464436 219.555928 
L 116.209352 211.252979 
L 118.954269 202.132729 
L 122.614157 189.137122 
L 130.848906 159.505112 
L 134.508795 147.163863 
L 139.083655 132.570033 
L 150.978293 95.271381 
L 159.213042 68.911919 
L 161.957958 60.772792 
L 164.702874 53.325621 
L 166.532819 48.833307 
L 168.362763 44.759711 
L 170.192707 41.120279 
L 172.022651 37.912457 
L 173.852595 35.11685 
L 175.68254 32.69988 
L 177.512484 30.617616 
L 179.342428 28.820337 
L 181.172372 27.257336 
L 183.917289 25.25094 
L 186.662205 23.542533 
L 189.407121 22.062452 
L 192.152038 20.800718 
L 194.896954 19.798416 
L 196.726898 19.310443 
L 198.556843 18.996811 
L 200.386787 18.883636 
L 202.216731 18.994943 
L 204.046675 19.351176 
L 205.876619 19.968291 
L 207.706564 20.857362 
L 209.536508 22.024546 
L 211.366452 23.4713 
L 213.196396 25.194696 
L 215.026341 27.187799 
L 216.856285 29.440047 
L 219.601201 33.273439 
L 222.346118 37.600873 
L 225.091034 42.355541 
L 228.750922 49.237011 
L 232.410811 56.588411 
L 237.900644 68.182395 
L 249.795281 93.579162 
L 253.455169 100.694841 
L 256.200086 105.54762 
L 258.945002 109.885675 
L 261.689918 113.656979 
L 263.519863 115.852365 
L 265.349807 117.805124 
L 268.094723 120.329473 
L 270.83964 122.466043 
L 274.499528 124.94152 
L 280.904333 129.120843 
L 284.564221 131.826793 
L 287.309138 134.106196 
L 290.054054 136.614445 
L 293.713943 140.293447 
L 297.373831 144.290159 
L 302.863664 150.660313 
L 311.098413 160.276969 
L 315.673273 165.251244 
L 319.333162 168.914631 
L 322.99305 172.273952 
L 326.652939 175.352797 
L 331.227799 178.897096 
L 344.952381 189.19277 
L 348.612269 192.303191 
L 352.272158 195.681469 
L 356.847018 200.252681 
L 364.166795 208.011342 
L 369.656628 213.715692 
L 373.316517 217.251834 
L 376.976405 220.482974 
L 380.636293 223.376663 
L 384.296182 225.941742 
L 387.95607 228.218785 
L 392.530931 230.7508 
L 398.020764 233.493973 
L 406.255513 237.33432 
L 412.660317 240.100745 
L 417.235178 241.804799 
L 420.895066 242.924065 
L 424.554955 243.809301 
L 429.129816 244.640871 
L 437.364565 245.796673 
L 455.664007 248.26068 
L 462.983784 248.882648 
L 499.582668 251.450208 
L 508.73239 251.626761 
L 522.456971 251.873012 
L 546.246246 252.50737 
L 564.545689 252.555804 
L 597.194152 252.556364 
L 597.194152 252.556364 
" style="fill:none;stroke:#0b84a5;stroke-linecap:square;stroke-width:3;"/>
   </g>
   <g id="patch_3">
    <path d="M 7.2 264.24 
L 565.2 264.24 
" style="fill:none;stroke:#000000;stroke-linecap:square;stroke-linejoin:miter;stroke-width:0.8;"/>
   </g>
   <g id="text_1">
    <!-- Comparing Age Distributions (Years) -->
    <g transform="translate(262.285714 41.408099)scale(0.18 -0.18)">
     <defs>
      <path d="M 4122 4306 
L 4122 3641 
Q 3803 3938 3442 4084 
Q 3081 4231 2675 4231 
Q 1875 4231 1450 3742 
Q 1025 3253 1025 2328 
Q 1025 1406 1450 917 
Q 1875 428 2675 428 
Q 3081 428 3442 575 
Q 3803 722 4122 1019 
L 4122 359 
Q 3791 134 3420 21 
Q 3050 -91 2638 -91 
Q 1578 -91 968 557 
Q 359 1206 359 2328 
Q 359 3453 968 4101 
Q 1578 4750 2638 4750 
Q 3056 4750 3426 4639 
Q 3797 4528 4122 4306 
z
" id="DejaVuSans-43" transform="scale(0.015625)"/>
      <path d="M 1959 3097 
Q 1497 3097 1228 2736 
Q 959 2375 959 1747 
Q 959 1119 1226 758 
Q 1494 397 1959 397 
Q 2419 397 2687 759 
Q 2956 1122 2956 1747 
Q 2956 2369 2687 2733 
Q 2419 3097 1959 3097 
z
M 1959 3584 
Q 2709 3584 3137 3096 
Q 3566 2609 3566 1747 
Q 3566 888 3137 398 
Q 2709 -91 1959 -91 
Q 1206 -91 779 398 
Q 353 888 353 1747 
Q 353 2609 779 3096 
Q 1206 3584 1959 3584 
z
" id="DejaVuSans-6f" transform="scale(0.015625)"/>
      <path d="M 3328 2828 
Q 3544 3216 3844 3400 
Q 4144 3584 4550 3584 
Q 5097 3584 5394 3201 
Q 5691 2819 5691 2113 
L 5691 0 
L 5113 0 
L 5113 2094 
Q 5113 2597 4934 2840 
Q 4756 3084 4391 3084 
Q 3944 3084 3684 2787 
Q 3425 2491 3425 1978 
L 3425 0 
L 2847 0 
L 2847 2094 
Q 2847 2600 2669 2842 
Q 2491 3084 2119 3084 
Q 1678 3084 1418 2786 
Q 1159 2488 1159 1978 
L 1159 0 
L 581 0 
L 581 3500 
L 1159 3500 
L 1159 2956 
Q 1356 3278 1631 3431 
Q 1906 3584 2284 3584 
Q 2666 3584 2933 3390 
Q 3200 3197 3328 2828 
z
" id="DejaVuSans-6d" transform="scale(0.015625)"/>
      <path d="M 1159 525 
L 1159 -1331 
L 581 -1331 
L 581 3500 
L 1159 3500 
L 1159 2969 
Q 1341 3281 1617 3432 
Q 1894 3584 2278 3584 
Q 2916 3584 3314 3078 
Q 3713 2572 3713 1747 
Q 3713 922 3314 415 
Q 2916 -91 2278 -91 
Q 1894 -91 1617 61 
Q 1341 213 1159 525 
z
M 3116 1747 
Q 3116 2381 2855 2742 
Q 2594 3103 2138 3103 
Q 1681 3103 1420 2742 
Q 1159 2381 1159 1747 
Q 1159 1113 1420 752 
Q 1681 391 2138 391 
Q 2594 391 2855 752 
Q 3116 1113 3116 1747 
z
" id="DejaVuSans-70" transform="scale(0.015625)"/>
      <path d="M 2194 1759 
Q 1497 1759 1228 1600 
Q 959 1441 959 1056 
Q 959 750 1161 570 
Q 1363 391 1709 391 
Q 2188 391 2477 730 
Q 2766 1069 2766 1631 
L 2766 1759 
L 2194 1759 
z
M 3341 1997 
L 3341 0 
L 2766 0 
L 2766 531 
Q 2569 213 2275 61 
Q 1981 -91 1556 -91 
Q 1019 -91 701 211 
Q 384 513 384 1019 
Q 384 1609 779 1909 
Q 1175 2209 1959 2209 
L 2766 2209 
L 2766 2266 
Q 2766 2663 2505 2880 
Q 2244 3097 1772 3097 
Q 1472 3097 1187 3025 
Q 903 2953 641 2809 
L 641 3341 
Q 956 3463 1253 3523 
Q 1550 3584 1831 3584 
Q 2591 3584 2966 3190 
Q 3341 2797 3341 1997 
z
" id="DejaVuSans-61" transform="scale(0.015625)"/>
      <path d="M 2631 2963 
Q 2534 3019 2420 3045 
Q 2306 3072 2169 3072 
Q 1681 3072 1420 2755 
Q 1159 2438 1159 1844 
L 1159 0 
L 581 0 
L 581 3500 
L 1159 3500 
L 1159 2956 
Q 1341 3275 1631 3429 
Q 1922 3584 2338 3584 
Q 2397 3584 2469 3576 
Q 2541 3569 2628 3553 
L 2631 2963 
z
" id="DejaVuSans-72" transform="scale(0.015625)"/>
      <path d="M 603 3500 
L 1178 3500 
L 1178 0 
L 603 0 
L 603 3500 
z
M 603 4863 
L 1178 4863 
L 1178 4134 
L 603 4134 
L 603 4863 
z
" id="DejaVuSans-69" transform="scale(0.015625)"/>
      <path d="M 3513 2113 
L 3513 0 
L 2938 0 
L 2938 2094 
Q 2938 2591 2744 2837 
Q 2550 3084 2163 3084 
Q 1697 3084 1428 2787 
Q 1159 2491 1159 1978 
L 1159 0 
L 581 0 
L 581 3500 
L 1159 3500 
L 1159 2956 
Q 1366 3272 1645 3428 
Q 1925 3584 2291 3584 
Q 2894 3584 3203 3211 
Q 3513 2838 3513 2113 
z
" id="DejaVuSans-6e" transform="scale(0.015625)"/>
      <path d="M 2906 1791 
Q 2906 2416 2648 2759 
Q 2391 3103 1925 3103 
Q 1463 3103 1205 2759 
Q 947 2416 947 1791 
Q 947 1169 1205 825 
Q 1463 481 1925 481 
Q 2391 481 2648 825 
Q 2906 1169 2906 1791 
z
M 3481 434 
Q 3481 -459 3084 -895 
Q 2688 -1331 1869 -1331 
Q 1566 -1331 1297 -1286 
Q 1028 -1241 775 -1147 
L 775 -588 
Q 1028 -725 1275 -790 
Q 1522 -856 1778 -856 
Q 2344 -856 2625 -561 
Q 2906 -266 2906 331 
L 2906 616 
Q 2728 306 2450 153 
Q 2172 0 1784 0 
Q 1141 0 747 490 
Q 353 981 353 1791 
Q 353 2603 747 3093 
Q 1141 3584 1784 3584 
Q 2172 3584 2450 3431 
Q 2728 3278 2906 2969 
L 2906 3500 
L 3481 3500 
L 3481 434 
z
" id="DejaVuSans-67" transform="scale(0.015625)"/>
      <path id="DejaVuSans-20" transform="scale(0.015625)"/>
      <path d="M 2188 4044 
L 1331 1722 
L 3047 1722 
L 2188 4044 
z
M 1831 4666 
L 2547 4666 
L 4325 0 
L 3669 0 
L 3244 1197 
L 1141 1197 
L 716 0 
L 50 0 
L 1831 4666 
z
" id="DejaVuSans-41" transform="scale(0.015625)"/>
      <path d="M 3597 1894 
L 3597 1613 
L 953 1613 
Q 991 1019 1311 708 
Q 1631 397 2203 397 
Q 2534 397 2845 478 
Q 3156 559 3463 722 
L 3463 178 
Q 3153 47 2828 -22 
Q 2503 -91 2169 -91 
Q 1331 -91 842 396 
Q 353 884 353 1716 
Q 353 2575 817 3079 
Q 1281 3584 2069 3584 
Q 2775 3584 3186 3129 
Q 3597 2675 3597 1894 
z
M 3022 2063 
Q 3016 2534 2758 2815 
Q 2500 3097 2075 3097 
Q 1594 3097 1305 2825 
Q 1016 2553 972 2059 
L 3022 2063 
z
" id="DejaVuSans-65" transform="scale(0.015625)"/>
      <path d="M 1259 4147 
L 1259 519 
L 2022 519 
Q 2988 519 3436 956 
Q 3884 1394 3884 2338 
Q 3884 3275 3436 3711 
Q 2988 4147 2022 4147 
L 1259 4147 
z
M 628 4666 
L 1925 4666 
Q 3281 4666 3915 4102 
Q 4550 3538 4550 2338 
Q 4550 1131 3912 565 
Q 3275 0 1925 0 
L 628 0 
L 628 4666 
z
" id="DejaVuSans-44" transform="scale(0.015625)"/>
      <path d="M 2834 3397 
L 2834 2853 
Q 2591 2978 2328 3040 
Q 2066 3103 1784 3103 
Q 1356 3103 1142 2972 
Q 928 2841 928 2578 
Q 928 2378 1081 2264 
Q 1234 2150 1697 2047 
L 1894 2003 
Q 2506 1872 2764 1633 
Q 3022 1394 3022 966 
Q 3022 478 2636 193 
Q 2250 -91 1575 -91 
Q 1294 -91 989 -36 
Q 684 19 347 128 
L 347 722 
Q 666 556 975 473 
Q 1284 391 1588 391 
Q 1994 391 2212 530 
Q 2431 669 2431 922 
Q 2431 1156 2273 1281 
Q 2116 1406 1581 1522 
L 1381 1569 
Q 847 1681 609 1914 
Q 372 2147 372 2553 
Q 372 3047 722 3315 
Q 1072 3584 1716 3584 
Q 2034 3584 2315 3537 
Q 2597 3491 2834 3397 
z
" id="DejaVuSans-73" transform="scale(0.015625)"/>
      <path d="M 1172 4494 
L 1172 3500 
L 2356 3500 
L 2356 3053 
L 1172 3053 
L 1172 1153 
Q 1172 725 1289 603 
Q 1406 481 1766 481 
L 2356 481 
L 2356 0 
L 1766 0 
Q 1100 0 847 248 
Q 594 497 594 1153 
L 594 3053 
L 172 3053 
L 172 3500 
L 594 3500 
L 594 4494 
L 1172 4494 
z
" id="DejaVuSans-74" transform="scale(0.015625)"/>
      <path d="M 3116 1747 
Q 3116 2381 2855 2742 
Q 2594 3103 2138 3103 
Q 1681 3103 1420 2742 
Q 1159 2381 1159 1747 
Q 1159 1113 1420 752 
Q 1681 391 2138 391 
Q 2594 391 2855 752 
Q 3116 1113 3116 1747 
z
M 1159 2969 
Q 1341 3281 1617 3432 
Q 1894 3584 2278 3584 
Q 2916 3584 3314 3078 
Q 3713 2572 3713 1747 
Q 3713 922 3314 415 
Q 2916 -91 2278 -91 
Q 1894 -91 1617 61 
Q 1341 213 1159 525 
L 1159 0 
L 581 0 
L 581 4863 
L 1159 4863 
L 1159 2969 
z
" id="DejaVuSans-62" transform="scale(0.015625)"/>
      <path d="M 544 1381 
L 544 3500 
L 1119 3500 
L 1119 1403 
Q 1119 906 1312 657 
Q 1506 409 1894 409 
Q 2359 409 2629 706 
Q 2900 1003 2900 1516 
L 2900 3500 
L 3475 3500 
L 3475 0 
L 2900 0 
L 2900 538 
Q 2691 219 2414 64 
Q 2138 -91 1772 -91 
Q 1169 -91 856 284 
Q 544 659 544 1381 
z
M 1991 3584 
L 1991 3584 
z
" id="DejaVuSans-75" transform="scale(0.015625)"/>
      <path d="M 1984 4856 
Q 1566 4138 1362 3434 
Q 1159 2731 1159 2009 
Q 1159 1288 1364 580 
Q 1569 -128 1984 -844 
L 1484 -844 
Q 1016 -109 783 600 
Q 550 1309 550 2009 
Q 550 2706 781 3412 
Q 1013 4119 1484 4856 
L 1984 4856 
z
" id="DejaVuSans-28" transform="scale(0.015625)"/>
      <path d="M -13 4666 
L 666 4666 
L 1959 2747 
L 3244 4666 
L 3922 4666 
L 2272 2222 
L 2272 0 
L 1638 0 
L 1638 2222 
L -13 4666 
z
" id="DejaVuSans-59" transform="scale(0.015625)"/>
      <path d="M 513 4856 
L 1013 4856 
Q 1481 4119 1714 3412 
Q 1947 2706 1947 2009 
Q 1947 1309 1714 600 
Q 1481 -109 1013 -844 
L 513 -844 
Q 928 -128 1133 580 
Q 1338 1288 1338 2009 
Q 1338 2731 1133 3434 
Q 928 4138 513 4856 
z
" id="DejaVuSans-29" transform="scale(0.015625)"/>
     </defs>
     <use xlink:href="#DejaVuSans-43"/>
     <use x="69.824219" xlink:href="#DejaVuSans-6f"/>
     <use x="131.005859" xlink:href="#DejaVuSans-6d"/>
     <use x="228.417969" xlink:href="#DejaVuSans-70"/>
     <use x="291.894531" xlink:href="#DejaVuSans-61"/>
     <use x="353.173828" xlink:href="#DejaVuSans-72"/>
     <use x="394.287109" xlink:href="#DejaVuSans-69"/>
     <use x="422.070312" xlink:href="#DejaVuSans-6e"/>
     <use x="485.449219" xlink:href="#DejaVuSans-67"/>
     <use x="548.925781" xlink:href="#DejaVuSans-20"/>
     <use x="580.712891" xlink:href="#DejaVuSans-41"/>
     <use x="649.121094" xlink:href="#DejaVuSans-67"/>
     <use x="712.597656" xlink:href="#DejaVuSans-65"/>
     <use x="774.121094" xlink:href="#DejaVuSans-20"/>
     <use x="805.908203" xlink:href="#DejaVuSans-44"/>
     <use x="882.910156" xlink:href="#DejaVuSans-69"/>
     <use x="910.693359" xlink:href="#DejaVuSans-73"/>
     <use x="962.792969" xlink:href="#DejaVuSans-74"/>
     <use x="1002.001953" xlink:href="#DejaVuSans-72"/>
     <use x="1043.115234" xlink:href="#DejaVuSans-69"/>
     <use x="1070.898438" xlink:href="#DejaVuSans-62"/>
     <use x="1134.375" xlink:href="#DejaVuSans-75"/>
     <use x="1197.753906" xlink:href="#DejaVuSans-74"/>
     <use x="1236.962891" xlink:href="#DejaVuSans-69"/>
     <use x="1264.746094" xlink:href="#DejaVuSans-6f"/>
     <use x="1325.927734" xlink:href="#DejaVuSans-6e"/>
     <use x="1389.306641" xlink:href="#DejaVuSans-73"/>
     <use x="1441.40625" xlink:href="#DejaVuSans-20"/>
     <use x="1473.193359" xlink:href="#DejaVuSans-28"/>
     <use x="1512.207031" xlink:href="#DejaVuSans-59"/>
     <use x="1560.041016" xlink:href="#DejaVuSans-65"/>
     <use x="1621.564453" xlink:href="#DejaVuSans-61"/>
     <use x="1682.84375" xlink:href="#DejaVuSans-72"/>
     <use x="1723.957031" xlink:href="#DejaVuSans-73"/>
     <use x="1776.056641" xlink:href="#DejaVuSans-29"/>
    </g>
   </g>
   <g id="legend_1">
    <g id="patch_4">
     <path d="M 288.63 60.533325 
L 312.63 60.533325 
L 312.63 52.133325 
L 288.63 52.133325 
z
" style="fill:#0b84a5;stroke:#0b84a5;stroke-linejoin:miter;"/>
    </g>
    <g id="text_2">
     <!-- Washington Post (n = 6,456) -->
     <g transform="translate(322.23 60.533325)scale(0.12 -0.12)">
      <defs>
       <path d="M 213 4666 
L 850 4666 
L 1831 722 
L 2809 4666 
L 3519 4666 
L 4500 722 
L 5478 4666 
L 6119 4666 
L 4947 0 
L 4153 0 
L 3169 4050 
L 2175 0 
L 1381 0 
L 213 4666 
z
" id="DejaVuSans-57" transform="scale(0.015625)"/>
       <path d="M 3513 2113 
L 3513 0 
L 2938 0 
L 2938 2094 
Q 2938 2591 2744 2837 
Q 2550 3084 2163 3084 
Q 1697 3084 1428 2787 
Q 1159 2491 1159 1978 
L 1159 0 
L 581 0 
L 581 4863 
L 1159 4863 
L 1159 2956 
Q 1366 3272 1645 3428 
Q 1925 3584 2291 3584 
Q 2894 3584 3203 3211 
Q 3513 2838 3513 2113 
z
" id="DejaVuSans-68" transform="scale(0.015625)"/>
       <path d="M 1259 4147 
L 1259 2394 
L 2053 2394 
Q 2494 2394 2734 2622 
Q 2975 2850 2975 3272 
Q 2975 3691 2734 3919 
Q 2494 4147 2053 4147 
L 1259 4147 
z
M 628 4666 
L 2053 4666 
Q 2838 4666 3239 4311 
Q 3641 3956 3641 3272 
Q 3641 2581 3239 2228 
Q 2838 1875 2053 1875 
L 1259 1875 
L 1259 0 
L 628 0 
L 628 4666 
z
" id="DejaVuSans-50" transform="scale(0.015625)"/>
       <path d="M 678 2906 
L 4684 2906 
L 4684 2381 
L 678 2381 
L 678 2906 
z
M 678 1631 
L 4684 1631 
L 4684 1100 
L 678 1100 
L 678 1631 
z
" id="DejaVuSans-3d" transform="scale(0.015625)"/>
       <path d="M 2113 2584 
Q 1688 2584 1439 2293 
Q 1191 2003 1191 1497 
Q 1191 994 1439 701 
Q 1688 409 2113 409 
Q 2538 409 2786 701 
Q 3034 994 3034 1497 
Q 3034 2003 2786 2293 
Q 2538 2584 2113 2584 
z
M 3366 4563 
L 3366 3988 
Q 3128 4100 2886 4159 
Q 2644 4219 2406 4219 
Q 1781 4219 1451 3797 
Q 1122 3375 1075 2522 
Q 1259 2794 1537 2939 
Q 1816 3084 2150 3084 
Q 2853 3084 3261 2657 
Q 3669 2231 3669 1497 
Q 3669 778 3244 343 
Q 2819 -91 2113 -91 
Q 1303 -91 875 529 
Q 447 1150 447 2328 
Q 447 3434 972 4092 
Q 1497 4750 2381 4750 
Q 2619 4750 2861 4703 
Q 3103 4656 3366 4563 
z
" id="DejaVuSans-36" transform="scale(0.015625)"/>
       <path d="M 750 794 
L 1409 794 
L 1409 256 
L 897 -744 
L 494 -744 
L 750 256 
L 750 794 
z
" id="DejaVuSans-2c" transform="scale(0.015625)"/>
       <path d="M 2419 4116 
L 825 1625 
L 2419 1625 
L 2419 4116 
z
M 2253 4666 
L 3047 4666 
L 3047 1625 
L 3713 1625 
L 3713 1100 
L 3047 1100 
L 3047 0 
L 2419 0 
L 2419 1100 
L 313 1100 
L 313 1709 
L 2253 4666 
z
" id="DejaVuSans-34" transform="scale(0.015625)"/>
       <path d="M 691 4666 
L 3169 4666 
L 3169 4134 
L 1269 4134 
L 1269 2991 
Q 1406 3038 1543 3061 
Q 1681 3084 1819 3084 
Q 2600 3084 3056 2656 
Q 3513 2228 3513 1497 
Q 3513 744 3044 326 
Q 2575 -91 1722 -91 
Q 1428 -91 1123 -41 
Q 819 9 494 109 
L 494 744 
Q 775 591 1075 516 
Q 1375 441 1709 441 
Q 2250 441 2565 725 
Q 2881 1009 2881 1497 
Q 2881 1984 2565 2268 
Q 2250 2553 1709 2553 
Q 1456 2553 1204 2497 
Q 953 2441 691 2322 
L 691 4666 
z
" id="DejaVuSans-35" transform="scale(0.015625)"/>
      </defs>
      <use xlink:href="#DejaVuSans-57"/>
      <use x="92.501953" xlink:href="#DejaVuSans-61"/>
      <use x="153.78125" xlink:href="#DejaVuSans-73"/>
      <use x="205.880859" xlink:href="#DejaVuSans-68"/>
      <use x="269.259766" xlink:href="#DejaVuSans-69"/>
      <use x="297.042969" xlink:href="#DejaVuSans-6e"/>
      <use x="360.421875" xlink:href="#DejaVuSans-67"/>
      <use x="423.898438" xlink:href="#DejaVuSans-74"/>
      <use x="463.107422" xlink:href="#DejaVuSans-6f"/>
      <use x="524.289062" xlink:href="#DejaVuSans-6e"/>
      <use x="587.667969" xlink:href="#DejaVuSans-20"/>
      <use x="619.455078" xlink:href="#DejaVuSans-50"/>
      <use x="676.132812" xlink:href="#DejaVuSans-6f"/>
      <use x="737.314453" xlink:href="#DejaVuSans-73"/>
      <use x="789.414062" xlink:href="#DejaVuSans-74"/>
      <use x="828.623047" xlink:href="#DejaVuSans-20"/>
      <use x="860.410156" xlink:href="#DejaVuSans-28"/>
      <use x="899.423828" xlink:href="#DejaVuSans-6e"/>
      <use x="962.802734" xlink:href="#DejaVuSans-20"/>
      <use x="994.589844" xlink:href="#DejaVuSans-3d"/>
      <use x="1078.378906" xlink:href="#DejaVuSans-20"/>
      <use x="1110.166016" xlink:href="#DejaVuSans-36"/>
      <use x="1173.789062" xlink:href="#DejaVuSans-2c"/>
      <use x="1205.576172" xlink:href="#DejaVuSans-34"/>
      <use x="1269.199219" xlink:href="#DejaVuSans-35"/>
      <use x="1332.822266" xlink:href="#DejaVuSans-36"/>
      <use x="1396.445312" xlink:href="#DejaVuSans-29"/>
     </g>
    </g>
    <g id="patch_5">
     <path d="M 288.63 78.147075 
L 312.63 78.147075 
L 312.63 69.747075 
L 288.63 69.747075 
z
" style="fill:#f6c85f;stroke:#f6c85f;stroke-linejoin:miter;"/>
    </g>
    <g id="text_3">
     <!-- US Census (n = 328,239,523) -->
     <g transform="translate(322.23 78.147075)scale(0.12 -0.12)">
      <defs>
       <path d="M 556 4666 
L 1191 4666 
L 1191 1831 
Q 1191 1081 1462 751 
Q 1734 422 2344 422 
Q 2950 422 3222 751 
Q 3494 1081 3494 1831 
L 3494 4666 
L 4128 4666 
L 4128 1753 
Q 4128 841 3676 375 
Q 3225 -91 2344 -91 
Q 1459 -91 1007 375 
Q 556 841 556 1753 
L 556 4666 
z
" id="DejaVuSans-55" transform="scale(0.015625)"/>
       <path d="M 3425 4513 
L 3425 3897 
Q 3066 4069 2747 4153 
Q 2428 4238 2131 4238 
Q 1616 4238 1336 4038 
Q 1056 3838 1056 3469 
Q 1056 3159 1242 3001 
Q 1428 2844 1947 2747 
L 2328 2669 
Q 3034 2534 3370 2195 
Q 3706 1856 3706 1288 
Q 3706 609 3251 259 
Q 2797 -91 1919 -91 
Q 1588 -91 1214 -16 
Q 841 59 441 206 
L 441 856 
Q 825 641 1194 531 
Q 1563 422 1919 422 
Q 2459 422 2753 634 
Q 3047 847 3047 1241 
Q 3047 1584 2836 1778 
Q 2625 1972 2144 2069 
L 1759 2144 
Q 1053 2284 737 2584 
Q 422 2884 422 3419 
Q 422 4038 858 4394 
Q 1294 4750 2059 4750 
Q 2388 4750 2728 4690 
Q 3069 4631 3425 4513 
z
" id="DejaVuSans-53" transform="scale(0.015625)"/>
       <path d="M 2597 2516 
Q 3050 2419 3304 2112 
Q 3559 1806 3559 1356 
Q 3559 666 3084 287 
Q 2609 -91 1734 -91 
Q 1441 -91 1130 -33 
Q 819 25 488 141 
L 488 750 
Q 750 597 1062 519 
Q 1375 441 1716 441 
Q 2309 441 2620 675 
Q 2931 909 2931 1356 
Q 2931 1769 2642 2001 
Q 2353 2234 1838 2234 
L 1294 2234 
L 1294 2753 
L 1863 2753 
Q 2328 2753 2575 2939 
Q 2822 3125 2822 3475 
Q 2822 3834 2567 4026 
Q 2313 4219 1838 4219 
Q 1578 4219 1281 4162 
Q 984 4106 628 3988 
L 628 4550 
Q 988 4650 1302 4700 
Q 1616 4750 1894 4750 
Q 2613 4750 3031 4423 
Q 3450 4097 3450 3541 
Q 3450 3153 3228 2886 
Q 3006 2619 2597 2516 
z
" id="DejaVuSans-33" transform="scale(0.015625)"/>
       <path d="M 1228 531 
L 3431 531 
L 3431 0 
L 469 0 
L 469 531 
Q 828 903 1448 1529 
Q 2069 2156 2228 2338 
Q 2531 2678 2651 2914 
Q 2772 3150 2772 3378 
Q 2772 3750 2511 3984 
Q 2250 4219 1831 4219 
Q 1534 4219 1204 4116 
Q 875 4013 500 3803 
L 500 4441 
Q 881 4594 1212 4672 
Q 1544 4750 1819 4750 
Q 2544 4750 2975 4387 
Q 3406 4025 3406 3419 
Q 3406 3131 3298 2873 
Q 3191 2616 2906 2266 
Q 2828 2175 2409 1742 
Q 1991 1309 1228 531 
z
" id="DejaVuSans-32" transform="scale(0.015625)"/>
       <path d="M 2034 2216 
Q 1584 2216 1326 1975 
Q 1069 1734 1069 1313 
Q 1069 891 1326 650 
Q 1584 409 2034 409 
Q 2484 409 2743 651 
Q 3003 894 3003 1313 
Q 3003 1734 2745 1975 
Q 2488 2216 2034 2216 
z
M 1403 2484 
Q 997 2584 770 2862 
Q 544 3141 544 3541 
Q 544 4100 942 4425 
Q 1341 4750 2034 4750 
Q 2731 4750 3128 4425 
Q 3525 4100 3525 3541 
Q 3525 3141 3298 2862 
Q 3072 2584 2669 2484 
Q 3125 2378 3379 2068 
Q 3634 1759 3634 1313 
Q 3634 634 3220 271 
Q 2806 -91 2034 -91 
Q 1263 -91 848 271 
Q 434 634 434 1313 
Q 434 1759 690 2068 
Q 947 2378 1403 2484 
z
M 1172 3481 
Q 1172 3119 1398 2916 
Q 1625 2713 2034 2713 
Q 2441 2713 2670 2916 
Q 2900 3119 2900 3481 
Q 2900 3844 2670 4047 
Q 2441 4250 2034 4250 
Q 1625 4250 1398 4047 
Q 1172 3844 1172 3481 
z
" id="DejaVuSans-38" transform="scale(0.015625)"/>
       <path d="M 703 97 
L 703 672 
Q 941 559 1184 500 
Q 1428 441 1663 441 
Q 2288 441 2617 861 
Q 2947 1281 2994 2138 
Q 2813 1869 2534 1725 
Q 2256 1581 1919 1581 
Q 1219 1581 811 2004 
Q 403 2428 403 3163 
Q 403 3881 828 4315 
Q 1253 4750 1959 4750 
Q 2769 4750 3195 4129 
Q 3622 3509 3622 2328 
Q 3622 1225 3098 567 
Q 2575 -91 1691 -91 
Q 1453 -91 1209 -44 
Q 966 3 703 97 
z
M 1959 2075 
Q 2384 2075 2632 2365 
Q 2881 2656 2881 3163 
Q 2881 3666 2632 3958 
Q 2384 4250 1959 4250 
Q 1534 4250 1286 3958 
Q 1038 3666 1038 3163 
Q 1038 2656 1286 2365 
Q 1534 2075 1959 2075 
z
" id="DejaVuSans-39" transform="scale(0.015625)"/>
      </defs>
      <use xlink:href="#DejaVuSans-55"/>
      <use x="73.193359" xlink:href="#DejaVuSans-53"/>
      <use x="136.669922" xlink:href="#DejaVuSans-20"/>
      <use x="168.457031" xlink:href="#DejaVuSans-43"/>
      <use x="238.28125" xlink:href="#DejaVuSans-65"/>
      <use x="299.804688" xlink:href="#DejaVuSans-6e"/>
      <use x="363.183594" xlink:href="#DejaVuSans-73"/>
      <use x="415.283203" xlink:href="#DejaVuSans-75"/>
      <use x="478.662109" xlink:href="#DejaVuSans-73"/>
      <use x="530.761719" xlink:href="#DejaVuSans-20"/>
      <use x="562.548828" xlink:href="#DejaVuSans-28"/>
      <use x="601.5625" xlink:href="#DejaVuSans-6e"/>
      <use x="664.941406" xlink:href="#DejaVuSans-20"/>
      <use x="696.728516" xlink:href="#DejaVuSans-3d"/>
      <use x="780.517578" xlink:href="#DejaVuSans-20"/>
      <use x="812.304688" xlink:href="#DejaVuSans-33"/>
      <use x="875.927734" xlink:href="#DejaVuSans-32"/>
      <use x="939.550781" xlink:href="#DejaVuSans-38"/>
      <use x="1003.173828" xlink:href="#DejaVuSans-2c"/>
      <use x="1034.960938" xlink:href="#DejaVuSans-32"/>
      <use x="1098.583984" xlink:href="#DejaVuSans-33"/>
      <use x="1162.207031" xlink:href="#DejaVuSans-39"/>
      <use x="1225.830078" xlink:href="#DejaVuSans-2c"/>
      <use x="1257.617188" xlink:href="#DejaVuSans-35"/>
      <use x="1321.240234" xlink:href="#DejaVuSans-32"/>
      <use x="1384.863281" xlink:href="#DejaVuSans-33"/>
      <use x="1448.486328" xlink:href="#DejaVuSans-29"/>
     </g>
    </g>
   </g>
  </g>
  <g id="axes_2">
   <g id="patch_6">
    <path d="M 7.2 339.84 
L 565.2 339.84 
L 565.2 294.48 
L 7.2 294.48 
z
" style="fill:#ffffff;"/>
   </g>
   <g id="matplotlib.axis_2">
    <g id="xtick_7">
     <g id="line2d_9"/>
     <g id="text_4">
      <!-- 0 -->
      <g transform="translate(29.953929 279.984375)scale(0.12 -0.12)">
       <defs>
        <path d="M 2034 4250 
Q 1547 4250 1301 3770 
Q 1056 3291 1056 2328 
Q 1056 1369 1301 889 
Q 1547 409 2034 409 
Q 2525 409 2770 889 
Q 3016 1369 3016 2328 
Q 3016 3291 2770 3770 
Q 2525 4250 2034 4250 
z
M 2034 4750 
Q 2819 4750 3233 4129 
Q 3647 3509 3647 2328 
Q 3647 1150 3233 529 
Q 2819 -91 2034 -91 
Q 1250 -91 836 529 
Q 422 1150 422 2328 
Q 422 3509 836 4129 
Q 1250 4750 2034 4750 
z
" id="DejaVuSans-30" transform="scale(0.015625)"/>
       </defs>
       <use xlink:href="#DejaVuSans-30"/>
      </g>
     </g>
    </g>
    <g id="xtick_8">
     <g id="line2d_10"/>
     <g id="text_5">
      <!-- 20 -->
      <g transform="translate(132.422143 279.984375)scale(0.12 -0.12)">
       <use xlink:href="#DejaVuSans-32"/>
       <use x="63.623047" xlink:href="#DejaVuSans-30"/>
      </g>
     </g>
    </g>
    <g id="xtick_9">
     <g id="line2d_11"/>
     <g id="text_6">
      <!-- 40 -->
      <g transform="translate(238.707857 279.984375)scale(0.12 -0.12)">
       <use xlink:href="#DejaVuSans-34"/>
       <use x="63.623047" xlink:href="#DejaVuSans-30"/>
      </g>
     </g>
    </g>
    <g id="xtick_10">
     <g id="line2d_12"/>
     <g id="text_7">
      <!-- 60 -->
      <g transform="translate(344.993571 279.984375)scale(0.12 -0.12)">
       <use xlink:href="#DejaVuSans-36"/>
       <use x="63.623047" xlink:href="#DejaVuSans-30"/>
      </g>
     </g>
    </g>
    <g id="xtick_11">
     <g id="line2d_13"/>
     <g id="text_8">
      <!-- 80 -->
      <g transform="translate(451.279286 279.984375)scale(0.12 -0.12)">
       <use xlink:href="#DejaVuSans-38"/>
       <use x="63.623047" xlink:href="#DejaVuSans-30"/>
      </g>
     </g>
    </g>
    <g id="xtick_12">
     <g id="line2d_14"/>
     <g id="text_9">
      <!-- 100 -->
      <g transform="translate(553.7475 279.984375)scale(0.12 -0.12)">
       <defs>
        <path d="M 794 531 
L 1825 531 
L 1825 4091 
L 703 3866 
L 703 4441 
L 1819 4666 
L 2450 4666 
L 2450 531 
L 3481 531 
L 3481 0 
L 794 0 
L 794 531 
z
" id="DejaVuSans-31" transform="scale(0.015625)"/>
       </defs>
       <use xlink:href="#DejaVuSans-31"/>
       <use x="63.623047" xlink:href="#DejaVuSans-30"/>
       <use x="127.246094" xlink:href="#DejaVuSans-30"/>
      </g>
     </g>
    </g>
   </g>
   <g id="line2d_15">
    <path clip-path="url(#p25f010b8e9)" d="M 177.257143 317.16 
L 65.657143 317.16 
" style="fill:none;stroke:#000000;stroke-linecap:square;"/>
   </g>
   <g id="line2d_16">
    <path clip-path="url(#p25f010b8e9)" d="M 272.914286 317.16 
L 522.685714 317.16 
" style="fill:none;stroke:#000000;stroke-linecap:square;"/>
   </g>
   <g id="line2d_17">
    <path clip-path="url(#p25f010b8e9)" d="M 65.657143 326.232 
L 65.657143 308.088 
" style="fill:none;stroke:#000000;stroke-linecap:square;"/>
   </g>
   <g id="line2d_18">
    <path clip-path="url(#p25f010b8e9)" d="M 522.685714 326.232 
L 522.685714 308.088 
" style="fill:none;stroke:#000000;stroke-linecap:square;"/>
   </g>
   <g id="line2d_19"/>
   <g id="patch_7">
    <path clip-path="url(#p25f010b8e9)" d="M 177.257143 335.304 
L 177.257143 299.016 
L 272.914286 299.016 
L 272.914286 335.304 
L 177.257143 335.304 
z
" style="fill:#0b84a5;opacity:0.9;stroke:#000000;stroke-linejoin:miter;"/>
   </g>
   <g id="line2d_20">
    <path clip-path="url(#p25f010b8e9)" d="M 219.771429 335.304 
L 219.771429 299.016 
" style="fill:none;stroke:#ff7f0e;stroke-linecap:square;stroke-opacity:0;"/>
   </g>
   <g id="text_10">
    <!-- 92 -->
    <g transform="translate(530.657143 321.575)scale(0.16 -0.16)">
     <use xlink:href="#DejaVuSans-39"/>
     <use x="63.623047" xlink:href="#DejaVuSans-32"/>
    </g>
   </g>
   <g id="text_11">
    <!-- 6 -->
    <g transform="translate(47.505714 321.575)scale(0.16 -0.16)">
     <use xlink:href="#DejaVuSans-36"/>
    </g>
   </g>
   <g id="text_12">
    <!-- 27 -->
    <g transform="translate(167.077143 353.327)scale(0.16 -0.16)">
     <defs>
      <path d="M 525 4666 
L 3525 4666 
L 3525 4397 
L 1831 0 
L 1172 0 
L 2766 4134 
L 525 4134 
L 525 4666 
z
" id="DejaVuSans-37" transform="scale(0.015625)"/>
     </defs>
     <use xlink:href="#DejaVuSans-32"/>
     <use x="63.623047" xlink:href="#DejaVuSans-37"/>
    </g>
   </g>
   <g id="text_13">
    <!-- 45 -->
    <g transform="translate(262.734286 353.327)scale(0.16 -0.16)">
     <use xlink:href="#DejaVuSans-34"/>
     <use x="63.623047" xlink:href="#DejaVuSans-35"/>
    </g>
   </g>
   <g id="text_14">
    <!-- $\mu = 37.13$ -->
    <g style="fill:#ffffff;" transform="translate(187.245714 321.5425)scale(0.16 -0.16)">
     <defs>
      <path d="M -84 -1331 
L 856 3500 
L 1434 3500 
L 1009 1322 
Q 997 1256 987 1175 
Q 978 1094 978 1013 
Q 978 722 1161 565 
Q 1344 409 1684 409 
Q 2147 409 2431 671 
Q 2716 934 2816 1459 
L 3213 3500 
L 3788 3500 
L 3266 809 
Q 3253 750 3248 706 
Q 3244 663 3244 628 
Q 3244 531 3283 486 
Q 3322 441 3406 441 
Q 3438 441 3492 456 
Q 3547 472 3647 513 
L 3559 50 
Q 3422 -19 3297 -55 
Q 3172 -91 3053 -91 
Q 2847 -91 2730 40 
Q 2613 172 2613 403 
Q 2438 153 2195 31 
Q 1953 -91 1625 -91 
Q 1334 -91 1117 43 
Q 900 178 831 397 
L 494 -1331 
L -84 -1331 
z
" id="DejaVuSans-Oblique-3bc" transform="scale(0.015625)"/>
      <path d="M 684 794 
L 1344 794 
L 1344 0 
L 684 0 
L 684 794 
z
" id="DejaVuSans-2e" transform="scale(0.015625)"/>
     </defs>
     <use transform="translate(0 0.78125)" xlink:href="#DejaVuSans-Oblique-3bc"/>
     <use transform="translate(83.105469 0.78125)" xlink:href="#DejaVuSans-3d"/>
     <use transform="translate(186.376953 0.78125)" xlink:href="#DejaVuSans-33"/>
     <use transform="translate(250 0.78125)" xlink:href="#DejaVuSans-37"/>
     <use transform="translate(313.623047 0.78125)" xlink:href="#DejaVuSans-2e"/>
     <use transform="translate(345.410156 0.78125)" xlink:href="#DejaVuSans-31"/>
     <use transform="translate(409.033203 0.78125)" xlink:href="#DejaVuSans-33"/>
    </g>
   </g>
  </g>
 </g>
 <defs>
  <clipPath id="p0516711e29">
   <rect height="257.04" width="558" x="7.2" y="7.2"/>
  </clipPath>
  <clipPath id="p25f010b8e9">
   <rect height="45.36" width="558" x="7.2" y="294.48"/>
  </clipPath>
 </defs>
</svg>
